<svg width="128" height="128" viewBox="0 0 128 128" fill="none" xmlns="http://www.w3.org/2000/svg">
<path d="M64 128C99.3462 128 128 99.3462 128 64C128 28.6538 99.3462 0 64 0C28.6538 0 0 28.6538 0 64C0 99.3462 28.6538 128 64 128Z" fill="#0CE466"/>
<path fill-rule="evenodd" clip-rule="evenodd" d="M64 70.9184C56.6789 70.9184 50.7386 64.984 50.7386 57.6571C50.7386 50.3301 56.6789 44.3959 64 44.3959C71.3209 44.3959 77.2612 50.3301 77.2612 57.6571C77.2612 64.984 71.3209 70.9184 64 70.9184ZM58.2341 57.6571C58.2341 60.8427 60.8169 63.4228 64 63.4228C67.1829 63.4228 69.7657 60.8427 69.7657 57.6571C69.7657 54.4715 67.1829 51.8913 64 51.8913C60.8169 51.8913 58.2341 54.4715 58.2341 57.6571Z" fill="black"/>
<path fill-rule="evenodd" clip-rule="evenodd" d="M21.3333 57.6747L46.7026 32.2877H81.2972L106.667 57.6747L64 100.324L21.3333 57.6747ZM83.6034 48.4317C72.8242 37.6052 55.1756 37.6052 44.3964 48.4319L35.1712 57.6572L44.3964 66.8824C55.1756 77.7089 72.8242 77.7089 83.6034 66.8824L92.8286 57.6572L83.6034 48.4317Z" fill="black"/>
</svg>
