<svg width="128" height="128" viewBox="0 0 128 128" fill="none" xmlns="http://www.w3.org/2000/svg">
<path d="M128 64C128 99.3442 99.3442 128 64 128C28.6558 128 0 99.3442 0 64C0 28.6558 28.6558 0 64 0C99.3516 0 128 28.6558 128 64Z" fill="#2081E2"/>
<path d="M31.5749 66.1504L31.8511 65.7165L48.5001 39.6713C48.7433 39.2899 49.3154 39.3294 49.4995 39.7436C52.2809 45.9772 54.6809 53.7296 53.5565 58.5559C53.0765 60.5416 51.7615 63.231 50.282 65.7165C50.0912 66.0782 49.8809 66.4333 49.6573 66.7752C49.5521 66.9329 49.3746 67.0251 49.1839 67.0251H32.0614C31.6012 67.0251 31.3317 66.5253 31.5749 66.1504Z" fill="white"/>
<path d="M105.785 70.9901V75.1128C105.785 75.3495 105.64 75.5599 105.43 75.652C104.141 76.2043 99.7289 78.2296 97.8944 80.7808C93.2127 87.297 89.6357 96.6144 81.64 96.6144H48.283C36.4604 96.6144 26.88 87.0011 26.88 75.1391V74.7577C26.88 74.4421 27.1364 74.1856 27.4522 74.1856H46.0473C46.4155 74.1856 46.6852 74.5275 46.6523 74.8892C46.5208 76.0991 46.7443 77.3353 47.3163 78.4597C48.4211 80.7018 50.7093 82.1024 53.1817 82.1024H62.3872V74.9155H53.2868C52.8201 74.9155 52.5439 74.3764 52.8135 73.9949C52.9121 73.8437 53.0239 73.6859 53.1422 73.5084C54.0036 72.2854 55.2331 70.385 56.4563 68.2217C57.2912 66.7621 58.1001 65.2036 58.751 63.6387C58.8826 63.356 58.9878 63.0667 59.0929 62.7838C59.2706 62.2842 59.4546 61.8173 59.5861 61.3505C59.7176 60.956 59.8228 60.5417 59.928 60.1537C60.2371 58.8255 60.3686 57.4184 60.3686 55.9586C60.3686 55.3866 60.3423 54.7882 60.2897 54.2161C60.2634 53.5914 60.1845 52.9668 60.1055 52.3422C60.0529 51.7898 59.9544 51.2441 59.8491 50.672C59.7176 49.8369 59.5335 49.0085 59.323 48.1733L59.2508 47.8578C59.0929 47.2857 58.9615 46.7399 58.7773 46.1679C58.2579 44.3727 57.6595 42.6237 57.0283 40.9864C56.7982 40.3355 56.535 39.7108 56.2721 39.0862C55.8841 38.1458 55.4896 37.2911 55.128 36.4823C54.9439 36.114 54.786 35.7787 54.6283 35.4368C54.4508 35.0488 54.2666 34.661 54.0826 34.2926C53.951 34.0099 53.7997 33.7469 53.6946 33.4839L52.5702 31.4061C52.4123 31.1233 52.6754 30.788 52.9843 30.8734L60.0201 32.7803H60.0398C60.0529 32.7803 60.0596 32.7869 60.0661 32.7869L60.9933 33.0433L62.0125 33.3326L62.3872 33.4378V29.2559C62.3872 27.2372 64.0048 25.6 66.0038 25.6C67.0032 25.6 67.9105 26.0076 68.5615 26.6718C69.2124 27.3359 69.6202 28.2433 69.6202 29.2559V35.4631L70.3697 35.6734C70.429 35.6932 70.4882 35.7195 70.5408 35.7589C70.7248 35.897 70.9878 36.101 71.3232 36.3507C71.5863 36.5612 71.869 36.8176 72.2109 37.0806C72.8882 37.6264 73.6969 38.33 74.5846 39.1387C74.8213 39.3426 75.0515 39.553 75.2619 39.7635C76.4061 40.8286 77.6882 42.078 78.9113 43.4588C79.2532 43.8467 79.5886 44.2412 79.9305 44.6555C80.2724 45.0763 80.634 45.4906 80.9496 45.9049C81.3639 46.4571 81.8109 47.0292 82.1989 47.6276C82.3831 47.9104 82.5934 48.1997 82.7711 48.4824C83.2707 49.2386 83.7113 50.0211 84.1321 50.8035C84.3096 51.1651 84.4938 51.5597 84.6515 51.9476C85.1184 52.9931 85.4867 54.0584 85.7233 55.1236C85.7957 55.3537 85.8483 55.6036 85.8746 55.8272V55.8797C85.9534 56.1954 85.9797 56.5307 86.006 56.8727C86.1113 57.9641 86.0587 59.0556 85.822 60.1537C85.7233 60.6206 85.5919 61.0611 85.434 61.528C85.2762 61.9752 85.1184 62.4419 84.9146 62.8825C84.5201 63.7965 84.0532 64.7105 83.5008 65.5653C83.3233 65.8809 83.113 66.2162 82.9025 66.5318C82.6724 66.8672 82.4357 67.1829 82.2252 67.492C81.9359 67.8865 81.6269 68.3006 81.3113 68.6688C81.0286 69.0568 80.7391 69.4448 80.4235 69.7867C79.9831 70.3061 79.5622 70.7993 79.1216 71.2728C78.8587 71.5818 78.5759 71.8974 78.2865 72.1802C78.0038 72.4958 77.7145 72.7785 77.4515 73.0415C77.0109 73.4821 76.6427 73.824 76.3337 74.1067L75.6103 74.7709C75.5052 74.8629 75.3671 74.9155 75.2225 74.9155H69.6202V82.1024H76.669C78.2471 82.1024 79.7463 81.5435 80.9562 80.5178C81.3705 80.1561 83.1787 78.5911 85.3157 76.2307C85.388 76.1517 85.4801 76.0926 85.5852 76.0662L105.055 70.4377C105.417 70.3324 105.785 70.6086 105.785 70.9901Z" fill="white"/>
</svg>
